HIERARCHY
ROOT root
{
	OFFSET	0	13.1	24.9
	CHANNELS 6  Xposition Yposition Zposition Xrotation Yrotation Zrotation
	JOINT spine_1
	{
		OFFSET	0	9.99999	0
		CHANNELS 3  Xrotation Yrotation Zrotation
		JOINT spine_2
		{
			OFFSET	0	112	-10
			CHANNELS 3  Xrotation Yrotation Zrotation
			JOINT spine_3
			{
				OFFSET	0	206.5	19.3
				CHANNELS 3  Xrotation Yrotation Zrotation
				JOINT spine_4
				{
					OFFSET	0	110.4	14.6
					CHANNELS 3  Xrotation Yrotation Zrotation
					JOINT neck_1
					{
						OFFSET	0	71.8	-50.3
						CHANNELS 3  Xrotation Yrotation Zrotation
						JOINT neck_2
						{
							OFFSET	0	86.2	-25.8
							CHANNELS 3  Xrotation Yrotation Zrotation
							JOINT head_ee
							{
								OFFSET	0	179.8	-8.7
								CHANNELS 3  Xrotation Yrotation Zrotation
								End Site
								{
									OFFSET	1	0	0
								}
							}
						}
					}
					JOINT left_clavicle
					{
						OFFSET	-43.2	22.4	-70.8
						CHANNELS 3  Xrotation Yrotation Zrotation
						JOINT left_shoulder
						{
							OFFSET	-93.9	-5.79999	48.7
							CHANNELS 3  Xrotation Yrotation Zrotation
							JOINT left_elbow
							{
								OFFSET	-291.4	-30.8	15.2
								CHANNELS 3  Xrotation Yrotation Zrotation
								JOINT left_lowarm_twist
								{
									OFFSET	-110.7	-3.89999	13.6
									CHANNELS 3  Xrotation Yrotation Zrotation
									JOINT left_hand
									{
										OFFSET	-110.7	-3.89999	13.6
										CHANNELS 3  Xrotation Yrotation Zrotation
										JOINT left_ee
										{
											OFFSET	-80.8	-5.10001	12.1
											CHANNELS 3  Xrotation Yrotation Zrotation
											End Site
											{
												OFFSET	1	0	0
											}
										}
									}
								}
							}
						}
					}
					JOINT right_clavicle
					{
						OFFSET	43.2	22.4	-70.8
						CHANNELS 3  Xrotation Yrotation Zrotation
						JOINT right_shoulder
						{
							OFFSET	93.9	-5.79999	48.7
							CHANNELS 3  Xrotation Yrotation Zrotation
							JOINT right_elbow
							{
								OFFSET	291.4	-30.8	15.2
								CHANNELS 3  Xrotation Yrotation Zrotation
								JOINT right_lowarm_twist
								{
									OFFSET	110.7	-3.89999	13.6
									CHANNELS 3  Xrotation Yrotation Zrotation
									JOINT right_hand
									{
										OFFSET	110.7	-3.89999	13.6
										CHANNELS 3  Xrotation Yrotation Zrotation
										JOINT right_ee
										{
											OFFSET	80.8	-5.10001	12.1
											CHANNELS 3  Xrotation Yrotation Zrotation
											End Site
											{
												OFFSET	1	0	0
											}
										}
									}
								}
							}
						}
					}
				}
			}
		}
	}
	JOINT left_hip
	{
		OFFSET	-82.8	-127.5	0.300001
		CHANNELS 3  Xrotation Yrotation Zrotation
		JOINT left_knee
		{
			OFFSET	-28.2	-396.7	2.2
			CHANNELS 3  Xrotation Yrotation Zrotation
			JOINT left_ankle
			{
				OFFSET	-11.7	-411.3	35.4
				CHANNELS 3  Xrotation Yrotation Zrotation
				JOINT left_toes
				{
					OFFSET	0	-60	-88.6
					CHANNELS 3  Xrotation Yrotation Zrotation
					JOINT left_foot_ee
					{
						OFFSET	-22.5	-16.5	-42.2
						CHANNELS 3  Xrotation Yrotation Zrotation
						End Site
						{
							OFFSET	1	0	0
						}
					}
				}
			}
		}
	}
	JOINT right_hip
	{
		OFFSET	82.8	-127.5	0.300001
		CHANNELS 3  Xrotation Yrotation Zrotation
		JOINT right_knee
		{
			OFFSET	28.2	-396.7	2.2
			CHANNELS 3  Xrotation Yrotation Zrotation
			JOINT right_ankle
			{
				OFFSET	11.7	-411.3	35.4
				CHANNELS 3  Xrotation Yrotation Zrotation
				JOINT right_toes
				{
					OFFSET	0	-60	-88.6
					CHANNELS 3  Xrotation Yrotation Zrotation
					JOINT right_foot_ee
					{
						OFFSET	22.5	-16.5	-42.2
						CHANNELS 3  Xrotation Yrotation Zrotation
						End Site
						{
							OFFSET	1	0	0
						}
					}
				}
			}
		}
	}
}
MOTION
Frames: 9
Frame Time: 0.02
1371.96 668.964 -1718.93 79.5455 83.2552 -76.3023 -1.66491 0.630757 -1.64974 -1.66369 0.734442 -1.60628 -1.68416 1.09709 -1.38421 -1.68579 0.864736 -1.54007 -16.8672 13.5381 3.49216 -17.4904 24.0501 8.37118 -0.0 0.0 -0.0 3.4822 25.993 7.51013 -14.8288 -25.3479 65.4989 0.382433 -10.7275 0.0359066 -43.5672 -3.33827 4.30493 0.0793211 18.4728 7.97279 -0.0 0.0 -0.0 12.537 1.41356 -25.1346 8.08977 39.5381 -59.3578 0.678945 18.5894 -0.111118 -83.4131 8.25299 -5.2208 0.539887 -29.4352 -14.4664 0.0 0.0 0.0 10.4895 -7.64016 -12.8 -59.1579 -2.10974 8.43201 3.91682 -16.2565 -0.623507 -2.47568 0.0 0.0 -0.0 0.0 -0.0 12.0164 18.4682 -15.8041 -34.0335 0.131439 -5.14537 42.4402 -23.4598 5.34519 -33.5501 0.0 0.0 0.0 0.0 0.0 
1352.5 670.155 -1717.13 77.9609 82.581 -74.4726 -1.49968 0.786014 -1.78699 -1.49835 0.898115 -1.73337 -1.52561 1.2824 -1.47199 -1.52715 1.03387 -1.65601 -18.3205 13.6421 5.1274 -18.9623 23.5237 10.2528 -0.0 0.0 -0.0 3.39182 26.5568 7.39384 -16.2782 -24.4151 65.1339 0.289812 -8.16999 0.0206978 -44.0618 -3.39312 4.33688 0.0988007 18.8766 8.24416 -0.0 0.0 -0.0 12.6926 2.02564 -25.5229 10.0709 39.9462 -59.0818 0.580191 16.0353 -0.0817236 -82.8137 8.17758 -5.23302 0.0978298 -28.985 -11.8768 0.0 0.0 0.0 14.332 -10.0066 -12.0467 -59.6723 -2.16471 8.48925 2.73024 -12.0002 -0.423064 -2.8143 0.0 0.0 -0.0 0.0 -0.0 10.7756 18.1555 -16.1122 -35.7844 0.220583 -5.39915 42.036 -23.8371 5.32067 -33.6063 0.0 0.0 0.0 0.0 0.0 
1341.29 671.425 -1716.12 75.6651 82.8761 -71.8944 -1.29053 0.884963 -1.93636 -1.28901 1.00636 -1.87616 -1.32216 1.41578 -1.59011 -1.32385 1.14692 -1.7937 -20.8892 11.8653 5.37024 -21.452 20.2576 10.2438 -0.0 0.0 -0.0 3.39255 26.5463 7.39474 -17.7572 -23.329 65.8574 0.245358 -6.93009 0.0148565 -43.9462 -3.38028 4.32946 0.0849279 19.8426 8.52401 -0.0 0.0 -0.0 12.896 3.6102 -26.0836 11.8407 39.5314 -58.3381 0.483812 13.4779 -0.0571685 -82.4203 8.128 -5.24061 -0.26304 -29.213 -9.98148 0.0 0.0 0.0 16.7493 -8.69252 -13.5741 -55.4329 -1.72752 8.0034 9.98174 -2.70388 -1.44346 -4.63118 0.0 0.0 -0.0 0.0 -0.0 8.91112 16.1598 -15.6108 -33.6589 0.113377 -5.09073 42.4219 -23.5131 5.34523 -34.1075 0.0 0.0 0.0 0.0 0.0 
1328.36 671.493 -1717.07 72.0229 83.7251 -67.9235 -0.911252 0.951644 -2.10736 -0.909434 1.08378 -2.04257 -0.948322 1.51859 -1.74378 -0.950475 1.22419 -1.96166 -21.9189 10.7087 5.81896 -22.3582 17.9171 10.3031 -0.0 0.0 -0.0 3.41097 26.523 7.4185 -19.7977 -22.2674 66.1022 0.184193 -5.21357 0.00838597 -43.8515 -3.36977 4.32335 0.0926972 20.407 8.78187 -0.0 0.0 -0.0 13.0514 4.39804 -26.4804 13.7694 39.8389 -58.0406 0.453072 12.65 -0.0502198 -82.1596 8.09511 -5.24546 -0.568361 -29.1734 -8.30954 0.0 0.0 0.0 18.2056 -7.74545 -14.2558 -52.5583 -1.4522 7.65641 8.66967 2.28264 -1.24399 -7.29345 0.0 0.0 -0.0 0.0 -0.0 8.56101 14.8082 -15.3427 -32.4921 0.0594261 -4.91983 42.4006 -22.424 5.31013 -34.2949 0.0 0.0 0.0 0.0 0.0 
1311.95 671.807 -1714.61 72.1902 84.0181 -67.6744 -0.666585 0.882106 -2.31592 -0.664188 1.02765 -2.25514 -0.704626 1.50381 -1.96992 -0.708119 1.17391 -2.1826 -22.4239 9.85306 5.96052 -22.775 16.2517 10.1086 -0.0 0.0 -0.0 3.49293 26.8073 7.52438 -22.8201 -20.6715 65.9436 0.191846 -5.42893 0.0090958 -43.6779 -3.35052 4.31212 0.234666 20.9824 9.84423 -0.0 0.0 -0.0 12.948 5.50698 -26.306 15.1155 39.79 -58.0203 0.421289 11.7883 -0.0434927 -81.9721 8.07146 -5.24884 -0.970971 -26.502 -5.03363 0.0 0.0 0.0 19.619 -6.86312 -14.5381 -51.8242 -1.38473 7.56565 10.867 6.47309 -1.54039 -8.28954 0.0 0.0 -0.0 0.0 -0.0 7.64116 13.8062 -15.1637 -32.5256 0.0609297 -4.92477 41.9084 -17.8457 5.15233 -34.6522 0.0 0.0 0.0 0.0 0.0 
1299.21 665.833 -1710.45 77.2189 84.2126 -72.4852 -0.510042 0.596222 -2.41016 -0.507121 0.748335 -2.36737 -0.537436 1.25013 -2.14524 -0.54274 0.895737 -2.31565 -24.081 9.19476 6.46806 -24.3847 14.9258 10.5311 -0.0 0.0 -0.0 3.38295 25.3927 7.37706 -25.0629 -16.9175 67.6914 0.231585 -6.54454 0.0132407 -46.2112 -3.63461 4.47022 0.226621 18.6626 8.94143 -0.0 0.0 -0.0 12.7034 6.37707 -25.7908 15.8288 39.8953 -57.0732 0.516593 14.3544 -0.0650526 -81.9044 8.06291 -5.25005 -1.42153 -28.8318 -3.56961 0.0 0.0 0.0 23.4305 -6.3141 -14.5955 -34.8681 -0.17296 5.26667 11.0923 9.79544 -1.57156 -10.691 0.0 0.0 -0.0 0.0 -0.0 5.66843 10.2772 -13.8789 -32.5942 0.0640078 -4.93483 41.4583 -12.8909 5.03156 -31.8533 0.0 0.0 0.0 0.0 0.0 
1289.7 665.946 -1706.94 118.31 85.4922 -112.922 -0.229637 0.135378 -2.47229 -0.226284 0.292374 -2.45868 -0.237546 0.812839 -2.33885 -0.244918 0.433378 -2.43779 -23.3409 8.28982 6.21754 -23.5438 13.2122 9.72636 -0.0 0.0 -0.0 3.68654 25.1513 7.78102 -24.1634 -12.2119 67.8778 0.210754 -5.9603 0.0109719 -47.4412 -3.77498 4.54243 0.24953 22.269 10.3974 -0.0 0.0 -0.0 12.4156 7.10914 -25.1664 16.0986 39.4241 -55.8884 0.563124 15.5869 -0.0770734 -80.6092 7.89907 -5.27112 -2.32822 -28.5492 1.43972 0.0 0.0 0.0 23.4729 -5.12193 -13.7109 -23.1588 0.24477 3.52133 8.60381 4.35615 -1.23119 -12.3922 0.0 0.0 -0.0 0.0 -0.0 4.62174 9.03281 -14.3778 -26.5762 -0.159904 -4.03884 42.5064 -17.3158 5.19311 -31.9469 0.0 0.0 0.0 0.0 0.0 
1269.97 662.517 -1706.37 131.073 84.2263 -125.348 -0.419665 -0.0696536 -2.49464 -0.416207 0.0891776 -2.49402 -0.418318 0.629418 -2.41498 -0.426376 0.240241 -2.48403 -23.1707 7.77242 5.62649 -23.3557 12.461 8.90654 -0.0 0.0 -0.0 3.7692 24.4715 7.8945 -25.2997 -9.78214 68.2148 0.252749 -7.13671 0.0157615 -49.5574 -4.02001 4.65955 0.353283 23.2255 11.3482 -0.0 0.0 -0.0 12.113 7.58961 -24.4991 17.0247 39.186 -55.535 0.602494 16.6183 -0.0879935 -79.6183 7.7734 -5.28472 -2.97581 -28.4313 5.00028 0.0 0.0 0.0 23.8091 -4.94332 -13.9343 -11.5473 0.300597 1.74363 9.69164 -2.63682 -1.40269 -12.2692 0.0 0.0 -0.0 0.0 -0.0 1.15585 7.44342 -14.3018 -24.0323 -0.226019 -3.65407 41.9132 -12.7246 5.06827 -28.8382 0.0 0.0 0.0 0.0 0.0 
1250.98 655.713 -1703.34 132.175 83.0491 -126.021 -0.578598 -0.248378 -2.51452 -0.575085 -0.0879215 -2.52522 -0.569004 0.469729 -2.48273 -0.577599 0.0718633 -2.52573 -23.2433 5.84491 6.48425 -23.2448 8.3606 8.77132 -0.0 0.0 -0.0 4.54272 24.1267 8.95692 -27.8248 -6.3964 67.6026 0.286437 -8.07611 0.0202209 -49.8095 -4.04948 4.6729 0.580674 20.2078 11.6537 -0.0 0.0 -0.0 11.7775 8.13052 -23.7586 16.9519 38.7261 -55.542 0.732202 19.9363 -0.128689 -75.103 7.19803 -5.31883 -3.41076 -28.3331 7.4228 0.0 0.0 0.0 23.8956 -4.51524 -13.4208 -4.14799 0.148422 0.61915 6.03727 -3.92138 -0.888789 -10.7637 0.0 0.0 -0.0 0.0 -0.0 -1.35202 4.99795 -14.6306 -24.3303 -0.21916 -3.69928 41.7139 -10.8741 5.03138 -22.6174 0.0 0.0 0.0 0.0 0.0 
